<svg xmlns="http://www.w3.org/2000/svg" viewBox="0 0 64 64">
  <defs>
    <linearGradient id="bg" x1="0" y1="0" x2="1" y2="1">
      <stop offset="0%" stop-color="#667eea"/>
      <stop offset="100%" stop-color="#764ba2"/>
    </linearGradient>
  </defs>
  <rect width="64" height="64" rx="16" fill="url(#bg)"/>
  <path d="M17 30a11 11 0 0 1 11-11h8a11 11 0 0 1 11 11v4a11 11 0 0 1-11 11h-8a11 11 0 0 1-11-11z" fill="none" stroke="#fff" stroke-width="2.5" stroke-linecap="round" opacity="0.95"/>
  <circle cx="27" cy="32" r="3" fill="#fff"/>
  <circle cx="37" cy="32" r="3" fill="#fff"/>
  <path d="M28 40l-4 5a1 1 0 0 1-1.7-.7v-3.5a1 1 0 0 0-.6-.9A6 6 0 0 1 18 35" fill="none" stroke="#fff" stroke-width="2.2" stroke-linecap="round" opacity="0.7"/>
</svg>
